<?xml version="1.0" encoding="UTF-8" standalone="no"?><!DOCTYPE svg PUBLIC "-//W3C//DTD SVG 1.1//EN" "http://www.w3.org/Graphics/SVG/1.1/DTD/svg11.dtd"><svg width="2050px" height="1000px" version="1.1" xmlns="http://www.w3.org/2000/svg" xmlns:xlink="http://www.w3.org/1999/xlink" xml:space="preserve" xmlns:serif="http://www.serif.com/" style="fill-rule:evenodd;clip-rule:evenodd;stroke-linecap:round;stroke-linejoin:round;stroke-miterlimit:1.5;"><rect id="Banner-Dark" serif:id="Banner Dark" x="0" y="0" width="2050" height="1000" style="fill:none;"/><g><path d="M599.748,465.866c-1.434,-20.286 -6.899,-39.467 -15.596,-56.745c2.057,-0.097 4.117,-0.145 6.177,-0.145c73.089,0 132.427,59.339 132.427,132.427c0,69.971 -54.266,127.267 -123.008,132.098l-9.419,0.33c3.167,0 -291.087,0 -291.087,0c-57.428,0 -103.982,-46.555 -103.982,-103.983c0,-57.389 46.592,-103.982 103.982,-103.982l0.378,0c5.51,-78.072 70.59,-139.697 150.064,-139.697c58.77,0 109.715,33.772 134.468,82.952" style="fill:none;stroke:#100020;stroke-width:18.75px;"/><path d="M299.62,465.866l0,0.001c16.103,0.058 31.677,3.84 45.658,10.745" style="fill:none;stroke:#100020;stroke-width:18.75px;"/></g><path d="M898.484,534.224c-5.12,0 -9.616,-0.992 -13.488,-2.976c-3.872,-1.984 -6.88,-4.8 -9.024,-8.448c-2.144,-3.648 -3.216,-7.872 -3.216,-12.672l0,-20.736c0,-4.736 1.072,-8.912 3.216,-12.528c2.144,-3.616 5.152,-6.416 9.024,-8.4c3.872,-1.984 8.368,-2.976 13.488,-2.976c5.12,0 9.616,0.944 13.488,2.832c3.872,1.888 6.88,4.544 9.024,7.968c2.144,3.424 3.216,7.376 3.216,11.856c0,0.32 -0.112,0.576 -0.336,0.768c-0.224,0.192 -0.496,0.288 -0.816,0.288l-13.632,0.864c-0.768,0 -1.152,-0.16 -1.152,-0.48l0,-0.576c0,-3.008 -0.896,-5.408 -2.688,-7.2c-1.792,-1.792 -4.16,-2.688 -7.104,-2.688c-2.944,0 -5.312,0.912 -7.104,2.736c-1.792,1.824 -2.688,4.208 -2.688,7.152l0,21.792c0,2.944 0.896,5.312 2.688,7.104c1.792,1.792 4.16,2.688 7.104,2.688c2.944,0 5.312,-0.896 7.104,-2.688c1.792,-1.792 2.688,-4.16 2.688,-7.104c0,-0.704 0.384,-1.056 1.152,-1.056l13.632,0.672c0.768,0 1.152,0.16 1.152,0.48l0,0.48c0,4.544 -1.072,8.544 -3.216,12c-2.144,3.456 -5.152,6.128 -9.024,8.016c-3.872,1.888 -8.368,2.832 -13.488,2.832Z" style="fill:#100020;fill-rule:nonzero;"/><path d="M962.228,533.456c-0.32,0 -0.592,-0.112 -0.816,-0.336c-0.224,-0.224 -0.336,-0.496 -0.336,-0.816l0,-64.896c0,-0.32 0.112,-0.592 0.336,-0.816c0.224,-0.224 0.496,-0.336 0.816,-0.336l13.632,0c0.32,0 0.592,0.112 0.816,0.336c0.224,0.224 0.336,0.496 0.336,0.816l0,51.936c0,0.32 0.16,0.48 0.48,0.48l30.624,0c0.32,0 0.592,0.112 0.816,0.336c0.224,0.224 0.336,0.496 0.336,0.816l0,11.328c0,0.32 -0.112,0.592 -0.336,0.816c-0.224,0.224 -0.496,0.336 -0.816,0.336l-45.888,0Z" style="fill:#100020;fill-rule:nonzero;"/><path d="M1068.98,534.512c-5.184,0 -9.744,-1.04 -13.68,-3.12c-3.936,-2.08 -6.992,-5.008 -9.168,-8.784c-2.176,-3.776 -3.264,-8.16 -3.264,-13.152l0,-19.2c0,-4.864 1.088,-9.168 3.264,-12.912c2.176,-3.744 5.232,-6.656 9.168,-8.736c3.936,-2.08 8.496,-3.12 13.68,-3.12c5.184,0 9.76,1.04 13.728,3.12c3.968,2.08 7.04,4.992 9.216,8.736c2.176,3.744 3.264,8.048 3.264,12.912l0,19.2c0,4.992 -1.088,9.376 -3.264,13.152c-2.176,3.776 -5.248,6.704 -9.216,8.784c-3.968,2.08 -8.544,3.12 -13.728,3.12Zm0,-13.632c3.072,0 5.552,-0.992 7.44,-2.976c1.888,-1.984 2.832,-4.64 2.832,-7.968l0,-19.872c0,-3.264 -0.944,-5.904 -2.832,-7.92c-1.888,-2.016 -4.368,-3.024 -7.44,-3.024c-3.008,0 -5.456,1.008 -7.344,3.024c-1.888,2.016 -2.832,4.656 -2.832,7.92l0,19.872c0,3.328 0.944,5.984 2.832,7.968c1.888,1.984 4.336,2.976 7.344,2.976Z" style="fill:#100020;fill-rule:nonzero;"/><path d="M1157.59,534.224c-5.056,0 -9.52,-0.976 -13.392,-2.928c-3.872,-1.952 -6.88,-4.72 -9.024,-8.304c-2.144,-3.584 -3.216,-7.712 -3.216,-12.384l0,-43.2c0,-0.32 0.112,-0.592 0.336,-0.816c0.224,-0.224 0.496,-0.336 0.816,-0.336l13.632,0c0.32,0 0.592,0.112 0.816,0.336c0.224,0.224 0.336,0.496 0.336,0.816l0,43.2c0,3.008 0.88,5.424 2.64,7.248c1.76,1.824 4.112,2.736 7.056,2.736c2.88,0 5.2,-0.912 6.96,-2.736c1.76,-1.824 2.64,-4.24 2.64,-7.248l0,-43.2c0,-0.32 0.112,-0.592 0.336,-0.816c0.224,-0.224 0.496,-0.336 0.816,-0.336l13.632,0c0.32,0 0.592,0.112 0.816,0.336c0.224,0.224 0.336,0.496 0.336,0.816l0,43.2c0,4.672 -1.056,8.8 -3.168,12.384c-2.112,3.584 -5.104,6.352 -8.976,8.304c-3.872,1.952 -8.336,2.928 -13.392,2.928Z" style="fill:#100020;fill-rule:nonzero;"/><path d="M1222.1,533.456c-0.32,0 -0.592,-0.112 -0.816,-0.336c-0.224,-0.224 -0.336,-0.496 -0.336,-0.816l0,-64.896c0,-0.32 0.112,-0.592 0.336,-0.816c0.224,-0.224 0.496,-0.336 0.816,-0.336l24.48,0c4.992,0 9.408,0.864 13.248,2.592c3.84,1.728 6.816,4.192 8.928,7.392c2.112,3.2 3.168,6.88 3.168,11.04l0,25.152c0,4.16 -1.056,7.84 -3.168,11.04c-2.112,3.2 -5.088,5.664 -8.928,7.392c-3.84,1.728 -8.256,2.592 -13.248,2.592l-24.48,0Zm14.784,-14.112c0,0.32 0.16,0.48 0.48,0.48l9.888,0c2.56,0 4.64,-0.912 6.24,-2.736c1.6,-1.824 2.432,-4.272 2.496,-7.344l0,-19.776c0,-3.072 -0.816,-5.52 -2.448,-7.344c-1.632,-1.824 -3.76,-2.736 -6.384,-2.736l-9.792,0c-0.32,0 -0.48,0.16 -0.48,0.48l0,38.976Z" style="fill:#100020;fill-rule:nonzero;"/><path d="M1381.75,534.224c-5.12,0 -9.616,-1.024 -13.488,-3.072c-3.872,-2.048 -6.88,-4.928 -9.024,-8.64c-2.144,-3.712 -3.216,-8 -3.216,-12.864l0,-19.68c0,-4.864 1.072,-9.136 3.216,-12.816c2.144,-3.68 5.152,-6.544 9.024,-8.592c3.872,-2.048 8.368,-3.072 13.488,-3.072c5.056,0 9.536,0.976 13.44,2.928c3.904,1.952 6.928,4.624 9.072,8.016c2.144,3.392 3.216,7.136 3.216,11.232l0,0.48c0,0.32 -0.112,0.592 -0.336,0.816c-0.224,0.224 -0.496,0.336 -0.816,0.336l-13.632,0c-0.768,0 -1.152,-0.192 -1.152,-0.576l0,-0.576c0,-2.496 -0.88,-4.624 -2.64,-6.384c-1.76,-1.76 -4.144,-2.64 -7.152,-2.64c-2.944,0 -5.312,0.96 -7.104,2.88c-1.792,1.92 -2.688,4.416 -2.688,7.488l0,20.64c0,3.072 0.992,5.568 2.976,7.488c1.984,1.92 4.48,2.88 7.488,2.88c2.816,0 5.088,-0.752 6.816,-2.256c1.728,-1.504 2.592,-3.6 2.592,-6.288l0,-2.688c0,-0.32 -0.16,-0.48 -0.48,-0.48l-9.6,0c-0.32,0 -0.592,-0.112 -0.816,-0.336c-0.224,-0.224 -0.336,-0.496 -0.336,-0.816l0,-10.56c0,-0.32 0.112,-0.592 0.336,-0.816c0.224,-0.224 0.496,-0.336 0.816,-0.336l24.576,0c0.32,0 0.592,0.112 0.816,0.336c0.224,0.224 0.336,0.496 0.336,0.816l0,13.056c0,4.8 -1.072,9.024 -3.216,12.672c-2.144,3.648 -5.152,6.464 -9.024,8.448c-3.872,1.984 -8.368,2.976 -13.488,2.976Z" style="fill:#100020;fill-rule:nonzero;"/><path d="M1486.48,533.456c-0.704,0 -1.152,-0.32 -1.344,-0.96l-2.496,-8.544c-0.128,-0.256 -0.288,-0.384 -0.48,-0.384l-21.888,0c-0.192,0 -0.352,0.128 -0.48,0.384l-2.496,8.544c-0.192,0.64 -0.64,0.96 -1.344,0.96l-14.688,0c-0.384,0 -0.672,-0.112 -0.864,-0.336c-0.192,-0.224 -0.224,-0.56 -0.096,-1.008l20.544,-64.896c0.192,-0.64 0.608,-0.96 1.248,-0.96l18.144,0c0.64,0 1.056,0.32 1.248,0.96l20.64,64.896c0.064,0.128 0.096,0.288 0.096,0.48c0,0.576 -0.352,0.864 -1.056,0.864l-14.688,0Zm-22.848,-22.752c-0.064,0.384 0.064,0.576 0.384,0.576l14.304,0c0.384,0 0.512,-0.192 0.384,-0.576l-7.296,-24.672c-0.064,-0.256 -0.16,-0.368 -0.288,-0.336c-0.128,0.032 -0.224,0.144 -0.288,0.336l-7.2,24.672Z" style="fill:#100020;fill-rule:nonzero;"/><path d="M1574.04,533.456c-0.64,0 -1.088,-0.288 -1.344,-0.864l-11.328,-25.536c-0.128,-0.256 -0.32,-0.384 -0.576,-0.384l-6.336,0c-0.32,0 -0.48,0.16 -0.48,0.48l0,25.152c0,0.32 -0.112,0.592 -0.336,0.816c-0.224,0.224 -0.496,0.336 -0.816,0.336l-13.632,0c-0.32,0 -0.592,-0.112 -0.816,-0.336c-0.224,-0.224 -0.336,-0.496 -0.336,-0.816l0,-64.896c0,-0.32 0.112,-0.592 0.336,-0.816c0.224,-0.224 0.496,-0.336 0.816,-0.336l28.512,0c4.224,0 7.936,0.864 11.136,2.592c3.2,1.728 5.68,4.176 7.44,7.344c1.76,3.168 2.64,6.8 2.64,10.896c0,4.288 -1.056,8 -3.168,11.136c-2.112,3.136 -5.056,5.408 -8.832,6.816c-0.32,0.128 -0.416,0.352 -0.288,0.672l12.672,26.4c0.128,0.256 0.192,0.448 0.192,0.576c0,0.512 -0.352,0.768 -1.056,0.768l-14.4,0Zm-19.584,-53.568c-0.32,0 -0.48,0.16 -0.48,0.48l0,13.632c0,0.32 0.16,0.48 0.48,0.48l10.656,0c2.368,0 4.288,-0.656 5.76,-1.968c1.472,-1.312 2.208,-3.056 2.208,-5.232c0,-2.24 -0.736,-4.032 -2.208,-5.376c-1.472,-1.344 -3.392,-2.016 -5.76,-2.016l-10.656,0Z" style="fill:#100020;fill-rule:nonzero;"/><path d="M1670.32,533.456c-0.704,0 -1.152,-0.32 -1.344,-0.96l-2.496,-8.544c-0.128,-0.256 -0.288,-0.384 -0.48,-0.384l-21.888,0c-0.192,0 -0.352,0.128 -0.48,0.384l-2.496,8.544c-0.192,0.64 -0.64,0.96 -1.344,0.96l-14.688,0c-0.384,0 -0.672,-0.112 -0.864,-0.336c-0.192,-0.224 -0.224,-0.56 -0.096,-1.008l20.544,-64.896c0.192,-0.64 0.608,-0.96 1.248,-0.96l18.144,0c0.64,0 1.056,0.32 1.248,0.96l20.64,64.896c0.064,0.128 0.096,0.288 0.096,0.48c0,0.576 -0.352,0.864 -1.056,0.864l-14.688,0Zm-22.848,-22.752c-0.064,0.384 0.064,0.576 0.384,0.576l14.304,0c0.384,0 0.512,-0.192 0.384,-0.576l-7.296,-24.672c-0.064,-0.256 -0.16,-0.368 -0.288,-0.336c-0.128,0.032 -0.224,0.144 -0.288,0.336l-7.2,24.672Z" style="fill:#100020;fill-rule:nonzero;"/><path d="M1744.15,534.224c-5.12,0 -9.616,-1.024 -13.488,-3.072c-3.872,-2.048 -6.88,-4.928 -9.024,-8.64c-2.144,-3.712 -3.216,-8 -3.216,-12.864l0,-19.68c0,-4.864 1.072,-9.136 3.216,-12.816c2.144,-3.68 5.152,-6.544 9.024,-8.592c3.872,-2.048 8.368,-3.072 13.488,-3.072c5.056,0 9.536,0.976 13.44,2.928c3.904,1.952 6.928,4.624 9.072,8.016c2.144,3.392 3.216,7.136 3.216,11.232l0,0.48c0,0.32 -0.112,0.592 -0.336,0.816c-0.224,0.224 -0.496,0.336 -0.816,0.336l-13.632,0c-0.768,0 -1.152,-0.192 -1.152,-0.576l0,-0.576c0,-2.496 -0.88,-4.624 -2.64,-6.384c-1.76,-1.76 -4.144,-2.64 -7.152,-2.64c-2.944,0 -5.312,0.96 -7.104,2.88c-1.792,1.92 -2.688,4.416 -2.688,7.488l0,20.64c0,3.072 0.992,5.568 2.976,7.488c1.984,1.92 4.48,2.88 7.488,2.88c2.816,0 5.088,-0.752 6.816,-2.256c1.728,-1.504 2.592,-3.6 2.592,-6.288l0,-2.688c0,-0.32 -0.16,-0.48 -0.48,-0.48l-9.6,0c-0.32,0 -0.592,-0.112 -0.816,-0.336c-0.224,-0.224 -0.336,-0.496 -0.336,-0.816l0,-10.56c0,-0.32 0.112,-0.592 0.336,-0.816c0.224,-0.224 0.496,-0.336 0.816,-0.336l24.576,0c0.32,0 0.592,0.112 0.816,0.336c0.224,0.224 0.336,0.496 0.336,0.816l0,13.056c0,4.8 -1.072,9.024 -3.216,12.672c-2.144,3.648 -5.152,6.464 -9.024,8.448c-3.872,1.984 -8.368,2.976 -13.488,2.976Z" style="fill:#100020;fill-rule:nonzero;"/><path d="M1854.74,478.736c0,0.32 -0.112,0.592 -0.336,0.816c-0.224,0.224 -0.496,0.336 -0.816,0.336l-30.144,0c-0.32,0 -0.48,0.16 -0.48,0.48l0,11.808c0,0.32 0.16,0.48 0.48,0.48l19.296,0c0.32,0 0.592,0.112 0.816,0.336c0.224,0.224 0.336,0.496 0.336,0.816l0,11.232c0,0.32 -0.112,0.592 -0.336,0.816c-0.224,0.224 -0.496,0.336 -0.816,0.336l-19.296,0c-0.32,0 -0.48,0.16 -0.48,0.48l0,12.672c0,0.32 0.16,0.48 0.48,0.48l30.144,0c0.32,0 0.592,0.112 0.816,0.336c0.224,0.224 0.336,0.496 0.336,0.816l0,11.328c0,0.32 -0.112,0.592 -0.336,0.816c-0.224,0.224 -0.496,0.336 -0.816,0.336l-45.408,0c-0.32,0 -0.592,-0.112 -0.816,-0.336c-0.224,-0.224 -0.336,-0.496 -0.336,-0.816l0,-64.896c0,-0.32 0.112,-0.592 0.336,-0.816c0.224,-0.224 0.496,-0.336 0.816,-0.336l45.408,0c0.32,0 0.592,0.112 0.816,0.336c0.224,0.224 0.336,0.496 0.336,0.816l0,11.328Z" style="fill:#100020;fill-rule:nonzero;"/></svg>