<?xml version="1.0" encoding="UTF-8" standalone="no"?><!DOCTYPE svg PUBLIC "-//W3C//DTD SVG 1.1//EN" "http://www.w3.org/Graphics/SVG/1.1/DTD/svg11.dtd"><svg width="1000px" height="1000px" version="1.1" xmlns="http://www.w3.org/2000/svg" xmlns:xlink="http://www.w3.org/1999/xlink" xml:space="preserve" xmlns:serif="http://www.serif.com/" style="fill-rule:evenodd;clip-rule:evenodd;stroke-linecap:round;stroke-linejoin:round;stroke-miterlimit:1.5;"><rect id="Icon" x="0" y="0" width="1000" height="1000" style="fill:none;"/><g><path d="M640.74,465.866c-1.434,-20.286 -6.899,-39.467 -15.596,-56.745c2.057,-0.097 4.117,-0.145 6.177,-0.145c73.089,0 132.427,59.339 132.427,132.427c0,69.971 -54.266,127.267 -123.008,132.098l-9.419,0.33c3.167,0 -291.087,0 -291.087,0c-57.428,0 -103.982,-46.555 -103.982,-103.983c0,-57.389 46.592,-103.982 103.982,-103.982l0.378,0c5.51,-78.072 70.59,-139.697 150.064,-139.697c58.77,0 109.715,33.772 134.468,82.952" style="fill:none;stroke:url(#_Linear1);stroke-width:18.75px;"/><path d="M340.612,465.866l0,0.001c16.103,0.058 31.677,3.84 45.658,10.745" style="fill:none;stroke:url(#_Linear2);stroke-width:18.75px;"/></g><defs><linearGradient id="_Linear1" x1="0" y1="0" x2="1" y2="0" gradientUnits="userSpaceOnUse" gradientTransform="matrix(527.497,0,0,347.661,236.252,500)"><stop offset="0" style="stop-color:#8000ff;stop-opacity:1"/><stop offset="1" style="stop-color:#2039ff;stop-opacity:1"/></linearGradient><linearGradient id="_Linear2" x1="0" y1="0" x2="1" y2="0" gradientUnits="userSpaceOnUse" gradientTransform="matrix(527.497,0,0,347.661,236.252,500)"><stop offset="0" style="stop-color:#8000ff;stop-opacity:1"/><stop offset="1" style="stop-color:#2039ff;stop-opacity:1"/></linearGradient></defs></svg>