<?xml version="1.0" encoding="UTF-8" standalone="no"?><!DOCTYPE svg PUBLIC "-//W3C//DTD SVG 1.1//EN" "http://www.w3.org/Graphics/SVG/1.1/DTD/svg11.dtd"><svg width="1000px" height="1000px" version="1.1" xmlns="http://www.w3.org/2000/svg" xmlns:xlink="http://www.w3.org/1999/xlink" xml:space="preserve" xmlns:serif="http://www.serif.com/" style="fill-rule:evenodd;clip-rule:evenodd;stroke-linecap:round;stroke-linejoin:round;stroke-miterlimit:1.5;"><rect id="Logo-White" serif:id="Logo White" x="0" y="0" width="1000" height="1000" style="fill:none;"/><g id="Logo-White1" serif:id="Logo White"><g><path d="M640.74,389.78c-1.434,-20.286 -6.899,-39.467 -15.596,-56.745c2.057,-0.097 4.117,-0.145 6.177,-0.145c73.089,0 132.427,59.339 132.427,132.427c0,69.971 -54.266,127.267 -123.008,132.098l-9.419,0.33c3.167,0 -291.087,0 -291.087,0c-57.428,0 -103.982,-46.555 -103.982,-103.983c0,-57.389 46.592,-103.982 103.982,-103.982l0.378,0c5.51,-78.072 70.59,-139.697 150.064,-139.697c58.77,0 109.715,33.772 134.468,82.952" style="fill:none;stroke:#fff;stroke-width:18.75px;"/><path d="M340.612,389.78l0,0.001c16.103,0.058 31.677,3.84 45.658,10.745" style="fill:none;stroke:#fff;stroke-width:18.75px;"/></g><path d="M151.052,749.965c-3.84,0 -7.212,-0.744 -10.116,-2.232c-2.904,-1.488 -5.16,-3.6 -6.768,-6.336c-1.608,-2.736 -2.412,-5.904 -2.412,-9.504l0,-15.552c0,-3.552 0.804,-6.684 2.412,-9.396c1.608,-2.712 3.864,-4.812 6.768,-6.3c2.904,-1.488 6.276,-2.232 10.116,-2.232c3.84,0 7.212,0.708 10.116,2.124c2.904,1.416 5.16,3.408 6.768,5.976c1.608,2.568 2.412,5.532 2.412,8.892c0,0.24 -0.084,0.432 -0.252,0.576c-0.168,0.144 -0.372,0.216 -0.612,0.216l-10.224,0.648c-0.576,0 -0.864,-0.12 -0.864,-0.36l0,-0.432c0,-2.256 -0.672,-4.056 -2.016,-5.4c-1.344,-1.344 -3.12,-2.016 -5.328,-2.016c-2.208,0 -3.984,0.684 -5.328,2.052c-1.344,1.368 -2.016,3.156 -2.016,5.364l0,16.344c0,2.208 0.672,3.984 2.016,5.328c1.344,1.344 3.12,2.016 5.328,2.016c2.208,0 3.984,-0.672 5.328,-2.016c1.344,-1.344 2.016,-3.12 2.016,-5.328c0,-0.528 0.288,-0.792 0.864,-0.792l10.224,0.504c0.576,0 0.864,0.12 0.864,0.36l0,0.36c0,3.408 -0.804,6.408 -2.412,9c-1.608,2.592 -3.864,4.596 -6.768,6.012c-2.904,1.416 -6.276,2.124 -10.116,2.124Z" style="fill:#fff;fill-rule:nonzero;"/><path d="M198.86,749.389c-0.24,0 -0.444,-0.084 -0.612,-0.252c-0.168,-0.168 -0.252,-0.372 -0.252,-0.612l0,-48.672c0,-0.24 0.084,-0.444 0.252,-0.612c0.168,-0.168 0.372,-0.252 0.612,-0.252l10.224,0c0.24,0 0.444,0.084 0.612,0.252c0.168,0.168 0.252,0.372 0.252,0.612l0,38.952c0,0.24 0.12,0.36 0.36,0.36l22.968,0c0.24,0 0.444,0.084 0.612,0.252c0.168,0.168 0.252,0.372 0.252,0.612l0,8.496c0,0.24 -0.084,0.444 -0.252,0.612c-0.168,0.168 -0.372,0.252 -0.612,0.252l-34.416,0Z" style="fill:#fff;fill-rule:nonzero;"/><path d="M278.924,750.181c-3.888,0 -7.308,-0.78 -10.26,-2.34c-2.952,-1.56 -5.244,-3.756 -6.876,-6.588c-1.632,-2.832 -2.448,-6.12 -2.448,-9.864l0,-14.4c0,-3.648 0.816,-6.876 2.448,-9.684c1.632,-2.808 3.924,-4.992 6.876,-6.552c2.952,-1.56 6.372,-2.34 10.26,-2.34c3.888,0 7.32,0.78 10.296,2.34c2.976,1.56 5.28,3.744 6.912,6.552c1.632,2.808 2.448,6.036 2.448,9.684l0,14.4c0,3.744 -0.816,7.032 -2.448,9.864c-1.632,2.832 -3.936,5.028 -6.912,6.588c-2.976,1.56 -6.408,2.34 -10.296,2.34Zm0,-10.224c2.304,0 4.164,-0.744 5.58,-2.232c1.416,-1.488 2.124,-3.48 2.124,-5.976l0,-14.904c0,-2.448 -0.708,-4.428 -2.124,-5.94c-1.416,-1.512 -3.276,-2.268 -5.58,-2.268c-2.256,0 -4.092,0.756 -5.508,2.268c-1.416,1.512 -2.124,3.492 -2.124,5.94l0,14.904c0,2.496 0.708,4.488 2.124,5.976c1.416,1.488 3.252,2.232 5.508,2.232Z" style="fill:#fff;fill-rule:nonzero;"/><path d="M345.38,749.965c-3.792,0 -7.14,-0.732 -10.044,-2.196c-2.904,-1.464 -5.16,-3.54 -6.768,-6.228c-1.608,-2.688 -2.412,-5.784 -2.412,-9.288l0,-32.4c0,-0.24 0.084,-0.444 0.252,-0.612c0.168,-0.168 0.372,-0.252 0.612,-0.252l10.224,0c0.24,0 0.444,0.084 0.612,0.252c0.168,0.168 0.252,0.372 0.252,0.612l0,32.4c0,2.256 0.66,4.068 1.98,5.436c1.32,1.368 3.084,2.052 5.292,2.052c2.16,0 3.9,-0.684 5.22,-2.052c1.32,-1.368 1.98,-3.18 1.98,-5.436l0,-32.4c0,-0.24 0.084,-0.444 0.252,-0.612c0.168,-0.168 0.372,-0.252 0.612,-0.252l10.224,0c0.24,0 0.444,0.084 0.612,0.252c0.168,0.168 0.252,0.372 0.252,0.612l0,32.4c0,3.504 -0.792,6.6 -2.376,9.288c-1.584,2.688 -3.828,4.764 -6.732,6.228c-2.904,1.464 -6.252,2.196 -10.044,2.196Z" style="fill:#fff;fill-rule:nonzero;"/><path d="M393.764,749.389c-0.24,0 -0.444,-0.084 -0.612,-0.252c-0.168,-0.168 -0.252,-0.372 -0.252,-0.612l0,-48.672c0,-0.24 0.084,-0.444 0.252,-0.612c0.168,-0.168 0.372,-0.252 0.612,-0.252l18.36,0c3.744,0 7.056,0.648 9.936,1.944c2.88,1.296 5.112,3.144 6.696,5.544c1.584,2.4 2.376,5.16 2.376,8.28l0,18.864c0,3.12 -0.792,5.88 -2.376,8.28c-1.584,2.4 -3.816,4.248 -6.696,5.544c-2.88,1.296 -6.192,1.944 -9.936,1.944l-18.36,0Zm11.088,-10.584c0,0.24 0.12,0.36 0.36,0.36l7.416,0c1.92,0 3.48,-0.684 4.68,-2.052c1.2,-1.368 1.824,-3.204 1.872,-5.508l0,-14.832c0,-2.304 -0.612,-4.14 -1.836,-5.508c-1.224,-1.368 -2.82,-2.052 -4.788,-2.052l-7.344,0c-0.24,0 -0.36,0.12 -0.36,0.36l0,29.232Z" style="fill:#fff;fill-rule:nonzero;"/><path d="M513.5,749.965c-3.84,0 -7.212,-0.768 -10.116,-2.304c-2.904,-1.536 -5.16,-3.696 -6.768,-6.48c-1.608,-2.784 -2.412,-6 -2.412,-9.648l0,-14.76c0,-3.648 0.804,-6.852 2.412,-9.612c1.608,-2.76 3.864,-4.908 6.768,-6.444c2.904,-1.536 6.276,-2.304 10.116,-2.304c3.792,0 7.152,0.732 10.08,2.196c2.928,1.464 5.196,3.468 6.804,6.012c1.608,2.544 2.412,5.352 2.412,8.424l0,0.36c0,0.24 -0.084,0.444 -0.252,0.612c-0.168,0.168 -0.372,0.252 -0.612,0.252l-10.224,0c-0.576,0 -0.864,-0.144 -0.864,-0.432l0,-0.432c0,-1.872 -0.66,-3.468 -1.98,-4.788c-1.32,-1.32 -3.108,-1.98 -5.364,-1.98c-2.208,0 -3.984,0.72 -5.328,2.16c-1.344,1.44 -2.016,3.312 -2.016,5.616l0,15.48c0,2.304 0.744,4.176 2.232,5.616c1.488,1.44 3.36,2.16 5.616,2.16c2.112,0 3.816,-0.564 5.112,-1.692c1.296,-1.128 1.944,-2.7 1.944,-4.716l0,-2.016c0,-0.24 -0.12,-0.36 -0.36,-0.36l-7.2,0c-0.24,0 -0.444,-0.084 -0.612,-0.252c-0.168,-0.168 -0.252,-0.372 -0.252,-0.612l0,-7.92c0,-0.24 0.084,-0.444 0.252,-0.612c0.168,-0.168 0.372,-0.252 0.612,-0.252l18.432,0c0.24,0 0.444,0.084 0.612,0.252c0.168,0.168 0.252,0.372 0.252,0.612l0,9.792c0,3.6 -0.804,6.768 -2.412,9.504c-1.608,2.736 -3.864,4.848 -6.768,6.336c-2.904,1.488 -6.276,2.232 -10.116,2.232Z" style="fill:#fff;fill-rule:nonzero;"/><path d="M592.052,749.389c-0.528,0 -0.864,-0.24 -1.008,-0.72l-1.872,-6.408c-0.096,-0.192 -0.216,-0.288 -0.36,-0.288l-16.416,0c-0.144,0 -0.264,0.096 -0.36,0.288l-1.872,6.408c-0.144,0.48 -0.48,0.72 -1.008,0.72l-11.016,0c-0.288,0 -0.504,-0.084 -0.648,-0.252c-0.144,-0.168 -0.168,-0.42 -0.072,-0.756l15.408,-48.672c0.144,-0.48 0.456,-0.72 0.936,-0.72l13.608,0c0.48,0 0.792,0.24 0.936,0.72l15.48,48.672c0.048,0.096 0.072,0.216 0.072,0.36c0,0.432 -0.264,0.648 -0.792,0.648l-11.016,0Zm-17.136,-17.064c-0.048,0.288 0.048,0.432 0.288,0.432l10.728,0c0.288,0 0.384,-0.144 0.288,-0.432l-5.472,-18.504c-0.048,-0.192 -0.12,-0.276 -0.216,-0.252c-0.096,0.024 -0.168,0.108 -0.216,0.252l-5.4,18.504Z" style="fill:#fff;fill-rule:nonzero;"/><path d="M657.716,749.389c-0.48,0 -0.816,-0.216 -1.008,-0.648l-8.496,-19.152c-0.096,-0.192 -0.24,-0.288 -0.432,-0.288l-4.752,0c-0.24,0 -0.36,0.12 -0.36,0.36l0,18.864c0,0.24 -0.084,0.444 -0.252,0.612c-0.168,0.168 -0.372,0.252 -0.612,0.252l-10.224,0c-0.24,0 -0.444,-0.084 -0.612,-0.252c-0.168,-0.168 -0.252,-0.372 -0.252,-0.612l0,-48.672c0,-0.24 0.084,-0.444 0.252,-0.612c0.168,-0.168 0.372,-0.252 0.612,-0.252l21.384,0c3.168,0 5.952,0.648 8.352,1.944c2.4,1.296 4.26,3.132 5.58,5.508c1.32,2.376 1.98,5.1 1.98,8.172c0,3.216 -0.792,6 -2.376,8.352c-1.584,2.352 -3.792,4.056 -6.624,5.112c-0.24,0.096 -0.312,0.264 -0.216,0.504l9.504,19.8c0.096,0.192 0.144,0.336 0.144,0.432c0,0.384 -0.264,0.576 -0.792,0.576l-10.8,0Zm-14.688,-40.176c-0.24,0 -0.36,0.12 -0.36,0.36l0,10.224c0,0.24 0.12,0.36 0.36,0.36l7.992,0c1.776,0 3.216,-0.492 4.32,-1.476c1.104,-0.984 1.656,-2.292 1.656,-3.924c0,-1.68 -0.552,-3.024 -1.656,-4.032c-1.104,-1.008 -2.544,-1.512 -4.32,-1.512l-7.992,0Z" style="fill:#fff;fill-rule:nonzero;"/><path d="M729.932,749.389c-0.528,0 -0.864,-0.24 -1.008,-0.72l-1.872,-6.408c-0.096,-0.192 -0.216,-0.288 -0.36,-0.288l-16.416,0c-0.144,0 -0.264,0.096 -0.36,0.288l-1.872,6.408c-0.144,0.48 -0.48,0.72 -1.008,0.72l-11.016,0c-0.288,0 -0.504,-0.084 -0.648,-0.252c-0.144,-0.168 -0.168,-0.42 -0.072,-0.756l15.408,-48.672c0.144,-0.48 0.456,-0.72 0.936,-0.72l13.608,0c0.48,0 0.792,0.24 0.936,0.72l15.48,48.672c0.048,0.096 0.072,0.216 0.072,0.36c0,0.432 -0.264,0.648 -0.792,0.648l-11.016,0Zm-17.136,-17.064c-0.048,0.288 0.048,0.432 0.288,0.432l10.728,0c0.288,0 0.384,-0.144 0.288,-0.432l-5.472,-18.504c-0.048,-0.192 -0.12,-0.276 -0.216,-0.252c-0.096,0.024 -0.168,0.108 -0.216,0.252l-5.4,18.504Z" style="fill:#fff;fill-rule:nonzero;"/><path d="M785.3,749.965c-3.84,0 -7.212,-0.768 -10.116,-2.304c-2.904,-1.536 -5.16,-3.696 -6.768,-6.48c-1.608,-2.784 -2.412,-6 -2.412,-9.648l0,-14.76c0,-3.648 0.804,-6.852 2.412,-9.612c1.608,-2.76 3.864,-4.908 6.768,-6.444c2.904,-1.536 6.276,-2.304 10.116,-2.304c3.792,0 7.152,0.732 10.08,2.196c2.928,1.464 5.196,3.468 6.804,6.012c1.608,2.544 2.412,5.352 2.412,8.424l0,0.36c0,0.24 -0.084,0.444 -0.252,0.612c-0.168,0.168 -0.372,0.252 -0.612,0.252l-10.224,0c-0.576,0 -0.864,-0.144 -0.864,-0.432l0,-0.432c0,-1.872 -0.66,-3.468 -1.98,-4.788c-1.32,-1.32 -3.108,-1.98 -5.364,-1.98c-2.208,0 -3.984,0.72 -5.328,2.16c-1.344,1.44 -2.016,3.312 -2.016,5.616l0,15.48c0,2.304 0.744,4.176 2.232,5.616c1.488,1.44 3.36,2.16 5.616,2.16c2.112,0 3.816,-0.564 5.112,-1.692c1.296,-1.128 1.944,-2.7 1.944,-4.716l0,-2.016c0,-0.24 -0.12,-0.36 -0.36,-0.36l-7.2,0c-0.24,0 -0.444,-0.084 -0.612,-0.252c-0.168,-0.168 -0.252,-0.372 -0.252,-0.612l0,-7.92c0,-0.24 0.084,-0.444 0.252,-0.612c0.168,-0.168 0.372,-0.252 0.612,-0.252l18.432,0c0.24,0 0.444,0.084 0.612,0.252c0.168,0.168 0.252,0.372 0.252,0.612l0,9.792c0,3.6 -0.804,6.768 -2.412,9.504c-1.608,2.736 -3.864,4.848 -6.768,6.336c-2.904,1.488 -6.276,2.232 -10.116,2.232Z" style="fill:#fff;fill-rule:nonzero;"/><path d="M868.244,708.349c0,0.24 -0.084,0.444 -0.252,0.612c-0.168,0.168 -0.372,0.252 -0.612,0.252l-22.608,0c-0.24,0 -0.36,0.12 -0.36,0.36l0,8.856c0,0.24 0.12,0.36 0.36,0.36l14.472,0c0.24,0 0.444,0.084 0.612,0.252c0.168,0.168 0.252,0.372 0.252,0.612l0,8.424c0,0.24 -0.084,0.444 -0.252,0.612c-0.168,0.168 -0.372,0.252 -0.612,0.252l-14.472,0c-0.24,0 -0.36,0.12 -0.36,0.36l0,9.504c0,0.24 0.12,0.36 0.36,0.36l22.608,0c0.24,0 0.444,0.084 0.612,0.252c0.168,0.168 0.252,0.372 0.252,0.612l0,8.496c0,0.24 -0.084,0.444 -0.252,0.612c-0.168,0.168 -0.372,0.252 -0.612,0.252l-34.056,0c-0.24,0 -0.444,-0.084 -0.612,-0.252c-0.168,-0.168 -0.252,-0.372 -0.252,-0.612l0,-48.672c0,-0.24 0.084,-0.444 0.252,-0.612c0.168,-0.168 0.372,-0.252 0.612,-0.252l34.056,0c0.24,0 0.444,0.084 0.612,0.252c0.168,0.168 0.252,0.372 0.252,0.612l0,8.496Z" style="fill:#fff;fill-rule:nonzero;"/></g></svg>